<svg width="40" height="40" viewBox="0 0 40 40" fill="none" xmlns="http://www.w3.org/2000/svg">
<path d="M16.5398 16.8807C18.4163 16.8807 19.9375 15.3594 19.9375 13.4829C19.9375 11.6064 18.4163 10.0852 16.5398 10.0852C14.6633 10.0852 13.1421 11.6064 13.1421 13.4829C13.1421 15.3594 14.6633 16.8807 16.5398 16.8807Z" fill="#FF2479"/>
<path d="M26.1589 10.9204C26.6305 14.3238 25.5794 18.4659 23.4544 21.9773C23.4544 21.9773 23.4544 21.9773 23.4487 21.9773C20.8748 20.7784 18.0964 19.7613 15.2441 19.1477C8.32367 17.6704 3.82367 21.5511 3.57367 25.7898C3.27254 30.9318 8.38617 36.125 15.335 34.7898C19.21 34.0511 22.5112 31.9375 25.0907 29.0738C25.0907 29.0738 25.0907 29.0738 25.0964 29.0738C27.2953 30.4375 29.3464 31.8636 30.9884 33.1023C31.8634 33.7613 33.0453 33.8523 34.0112 33.3295C35.8009 32.3579 35.9884 29.8636 34.3634 28.6363C32.7782 27.4375 30.6987 25.9773 28.2839 24.5398C28.2839 24.5398 28.2839 24.5398 28.2839 24.5341C30.7328 20.0284 31.8237 14.7386 31.2271 10.0795C31.1532 9.51134 30.9998 8.94884 30.8123 8.42612C30.46 7.45453 29.5623 6.73294 28.4714 6.72725C27.0737 6.71589 25.96 7.90339 25.9714 9.30112C25.9771 10.0738 26.1078 10.6136 26.1532 10.9148L26.1589 10.9204ZM13.8521 29.3579C11.6532 29.6875 9.31799 28.2216 9.19867 26.5568C9.0964 25.1023 10.6987 23.5568 12.96 23.8182C14.9884 24.0568 17.4544 24.9773 19.9884 26.2216C19.9884 26.2216 19.9884 26.2273 19.9884 26.2329C18.1816 27.8693 16.0907 29.017 13.8578 29.3579H13.8521Z" fill="#FF2479"/>
<path d="M23.4434 21.9772C20.8695 20.7784 18.0911 19.7556 15.2388 19.1477C8.31836 17.6704 3.81836 21.5511 3.56836 25.7897C3.75018 22.8124 8.55131 22.2102 9.13086 25.9431C9.13086 25.9431 9.20472 26.5511 9.20472 26.5568C9.26154 24.6704 11.0968 23.6022 12.9604 23.8181C14.9888 24.0568 17.4604 24.9772 19.9945 26.2215C21.0002 25.3409 23.3865 22.0738 23.449 21.9772H23.4434Z" fill="url(#paint0_linear_1605_29876)"/>
<path d="M34.3584 28.6419C32.7731 27.4431 30.6936 25.9772 28.2788 24.5397C27.2618 26.6306 25.0913 29.0738 25.0913 29.0738C27.2902 30.4374 29.347 31.8635 30.989 33.1079C31.864 33.7669 33.0459 33.8579 34.0118 33.3351C35.8015 32.3635 35.989 29.8692 34.364 28.6419H34.3584Z" fill="url(#paint1_linear_1605_29876)"/>
<defs>
<linearGradient id="paint0_linear_1605_29876" x1="6.87474" y1="21.2603" x2="22.76" y2="27.6862" gradientUnits="userSpaceOnUse">
<stop stop-color="#FFBCD6"/>
<stop offset="1" stop-color="#DA87AA"/>
</linearGradient>
<linearGradient id="paint1_linear_1605_29876" x1="36.8752" y1="36.9999" x2="22.6264" y2="34.8838" gradientUnits="userSpaceOnUse">
<stop stop-color="#FF2479"/>
<stop offset="1" stop-color="#DA87AA"/>
</linearGradient>
</defs>
</svg>
