<svg width="221" height="80" viewBox="0 0 221 80" fill="none" xmlns="http://www.w3.org/2000/svg">
<g clip-path="url(#clip0_122_1540)">
<path d="M49.8099 43.8724C49.2224 45.9421 48.172 47.8159 46.7833 49.3826L69.3047 62.4592C70.4797 60.7323 71.5168 58.9074 72.4159 56.998L49.8099 43.8724Z" fill="#FF006C"/>
<path d="M49.8099 36.1235L72.4159 22.9978C71.5168 21.0929 70.4797 19.2636 69.3047 17.5366L46.7833 30.6133C48.172 32.18 49.2224 34.0494 49.8099 36.1235Z" fill="#83CA00"/>
<path d="M36.2079 25.8462C37.2894 25.8462 38.3398 25.9797 39.3502 26.2067V0.133526C38.3131 0.0534105 37.2672 0 36.2079 0C35.1486 0 34.1026 0.0534105 33.0656 0.133526V26.2067C34.0759 25.9753 35.1263 25.8462 36.2079 25.8462Z" fill="#2E33BC"/>
<path d="M25.6326 30.6177L3.11116 17.5366C1.93613 19.2636 0.899076 21.0929 0 22.9978L22.606 36.1235C23.1935 34.0538 24.2439 32.18 25.6326 30.6133V30.6177Z" fill="#FF006C"/>
<path d="M22.606 43.8724L0 57.0025C0.899076 58.9075 1.93613 60.7368 3.11116 62.4637L25.6326 49.387C24.2439 47.8203 23.1935 45.951 22.606 43.8769V43.8724Z" fill="#83CA00"/>
<path d="M36.2079 54.1539C35.1263 54.1539 34.0759 54.0204 33.0656 53.7934V79.8666C34.1026 79.9467 35.1486 80.0002 36.2079 80.0002C37.2672 80.0002 38.3131 79.9467 39.3502 79.8666V53.7934C38.3398 54.0249 37.2894 54.1539 36.2079 54.1539Z" fill="#2E33BC"/>
<path d="M198.705 15.3288C199.67 15.3288 200.641 16.1834 200.641 17.1581V37.0001H210.735V17.127C210.735 10.2904 208.225 7.54868 203.471 7.54868C200.481 7.54868 198.344 8.52787 196.742 11.145V0H186.647V36.9957H196.742V17.1448C196.742 16.1522 197.752 15.3244 198.705 15.3244V15.3288Z" fill="black"/>
<path d="M180.158 7.56648L180.145 7.61544V0H170.05V7.56648H166.846V16.5394H170.05V36.9422H180.145V16.5394H183.354V7.56648H180.158Z" fill="black"/>
<path d="M122.51 7.56648C114.383 7.56648 107.796 14.1538 107.796 22.2811C107.796 30.4084 114.383 36.9957 122.51 36.9957C130.638 36.9957 137.225 30.4084 137.225 22.2811C137.225 14.1538 130.638 7.56648 122.51 7.56648ZM122.51 27.4886C119.635 27.4886 117.303 25.1563 117.303 22.2811C117.303 19.4058 119.635 17.0736 122.51 17.0736C125.386 17.0736 127.718 19.4058 127.718 22.2811C127.718 25.1563 125.386 27.4886 122.51 27.4886Z" fill="black"/>
<path d="M109.18 0H100.804L94.875 13.4817L88.893 0H80.5165V7.58429L88.7372 24.8537V37.0001H100.95V24.8359L109.18 7.56648V0Z" fill="black"/>
<path d="M153.733 7.56648V26.8121C153.733 27.8803 152.865 28.7482 151.797 28.7482C150.729 28.7482 149.861 27.8803 149.861 26.8121V7.56648H140.042V28.5613C140.042 33.5373 142.285 37.0001 146.932 37.0001C150.511 37.0001 152.754 35.6693 154.303 32.892L154.997 36.9511H163.543V7.56648H153.724H153.733Z" fill="black"/>
<path d="M152.269 57.3672V79.9998H142.17V57.3672H152.269Z" fill="#FF006C"/>
<path d="M124.651 50.5665C116.528 50.5665 109.945 57.1494 109.945 65.2722C109.945 73.3951 116.528 79.9779 124.651 79.9779C132.774 79.9779 139.357 73.3951 139.357 65.2722C139.357 57.1494 132.774 50.5665 124.651 50.5665ZM124.651 70.4753C121.776 70.4753 119.448 68.1475 119.448 65.2722C119.448 62.3969 121.776 60.0691 124.651 60.0691C127.526 60.0691 129.854 62.3969 129.854 65.2722C129.854 68.1475 127.526 70.4753 124.651 70.4753Z" fill="#FF006C"/>
<path d="M99.268 42.9688L94.7993 67.8447L90.3351 42.9688H80.5165V50.5886L86.948 79.9956H92.5783L92.5739 80H102.655L109.082 50.5441V42.9688H99.268Z" fill="#FF006C"/>
<path d="M147.222 55.7381C150.095 55.7381 152.425 53.4086 152.425 50.535C152.425 47.6615 150.095 45.332 147.222 45.332C144.348 45.332 142.019 47.6615 142.019 50.535C142.019 53.4086 144.348 55.7381 147.222 55.7381Z" fill="#FF006C"/>
<path d="M169.565 66.6384V69.8164C169.565 69.8164 169.565 69.852 169.565 69.8698C169.565 70.938 168.697 71.8059 167.629 71.8059C166.56 71.8059 165.692 70.938 165.692 69.8698C165.692 69.852 165.692 69.8342 165.692 69.8164V59.8998C165.692 58.8316 166.56 57.9637 167.629 57.9637C168.697 57.9637 169.565 58.8316 169.565 59.8998V63.9857H179.192V62.6104C179.192 55.9741 173.811 50.593 167.175 50.593C160.538 50.593 155.157 55.9741 155.157 62.6104V67.9604C155.157 74.5966 160.538 79.9777 167.175 79.9777C173.811 79.9777 179.192 74.5966 179.192 67.9604V66.6384H169.565Z" fill="#FF006C"/>
<path d="M196.626 66.6117V69.6428C196.626 69.6428 196.626 69.6784 196.626 69.6962C196.626 70.7644 195.758 71.6323 194.69 71.6323C193.622 71.6323 192.754 70.7644 192.754 69.6962C192.754 69.6784 192.754 69.6606 192.754 69.6428V63.9501H196.626V63.959H206.307V62.6104C206.307 55.9741 200.926 50.593 194.289 50.593C187.653 50.593 182.272 55.9741 182.272 62.6104V67.9604C182.272 74.5966 187.653 79.9777 194.289 79.9777C200.926 79.9777 206.307 74.5966 206.307 67.9604V66.6117H196.626ZM194.694 57.9058C195.763 57.9058 196.63 58.7737 196.63 59.842C196.63 60.9102 195.763 61.7781 194.694 61.7781C193.626 61.7781 192.758 60.9102 192.758 59.842C192.758 58.7737 193.626 57.9058 194.694 57.9058Z" fill="#FF006C"/>
</g>
<defs>
<clipPath id="clip0_122_1540">
<rect width="210.736" height="80" fill="white"/>
</clipPath>
</defs>
</svg>
