<svg width="28" height="28" viewBox="0 0 28 28" fill="none" xmlns="http://www.w3.org/2000/svg">
<path d="M25.6666 13.9997C25.6666 20.443 20.4432 25.6663 13.9999 25.6663M25.6666 13.9997C25.6666 7.55635 20.4432 2.33301 13.9999 2.33301M25.6666 13.9997H2.33325M13.9999 25.6663C7.5566 25.6663 2.33325 20.443 2.33325 13.9997M13.9999 25.6663C11.0042 22.5208 9.33325 18.3435 9.33325 13.9997C9.33325 9.65587 11.0042 5.47852 13.9999 2.33301M13.9999 25.6663C16.9956 22.5208 18.6666 18.3435 18.6666 13.9997C18.6666 9.65587 16.9956 5.47852 13.9999 2.33301M2.33325 13.9997C2.33325 7.55635 7.5566 2.33301 13.9999 2.33301" stroke="#FF006C" stroke-width="2" stroke-linecap="round" stroke-linejoin="round"/>
</svg>
