<svg width="28" height="28" viewBox="0 0 28 28" fill="none" xmlns="http://www.w3.org/2000/svg">
<path d="M25.6667 14C25.6667 20.4433 20.4433 25.6666 14 25.6666M25.6667 14C25.6667 7.55666 20.4433 2.33331 14 2.33331M25.6667 14H2.33333M14 25.6666C7.55667 25.6666 2.33333 20.4433 2.33333 14M14 25.6666C11.0043 22.5211 9.33333 18.3438 9.33333 14C9.33333 9.65618 11.0043 5.47883 14 2.33331M14 25.6666C16.9957 22.5211 18.6667 18.3438 18.6667 14C18.6667 9.65618 16.9957 5.47883 14 2.33331M2.33333 14C2.33333 7.55666 7.55667 2.33331 14 2.33331" stroke="#9CA3AF" stroke-width="2" stroke-linecap="round" stroke-linejoin="round"/>
</svg>
