<svg width="29" height="28" viewBox="0 0 29 28" fill="none" xmlns="http://www.w3.org/2000/svg">
<path d="M14.5 15.1666V2.33331L23.8333 6.99998L14.5 11.6666M24.488 11.9255C25.1089 13.839 25.167 15.8906 24.6554 17.8361C24.1438 19.7817 23.0841 21.5393 21.6024 22.9C20.1206 24.2606 18.2792 25.1669 16.2971 25.5111C14.3151 25.8553 12.2759 25.6229 10.4222 24.8416C8.56844 24.0602 6.97818 22.7627 5.8406 21.1036C4.70302 19.4444 4.066 17.4934 4.00534 15.4826C3.94469 13.4718 4.46293 11.4859 5.49843 9.76121C6.53393 8.03649 8.04309 6.64554 9.84636 5.75385M9.83554 11.6632C9.25093 12.4414 8.87034 13.3535 8.72843 14.3164C8.58652 15.2794 8.68781 16.2625 9.02308 17.1763C9.35834 18.09 9.91692 18.9054 10.6479 19.548C11.3789 20.1906 12.2591 20.6402 13.2083 20.8556C14.1575 21.071 15.1455 21.0455 16.0823 20.7814C17.0191 20.5173 17.8749 20.023 18.5718 19.3435C19.2687 18.664 19.7845 17.8209 20.0721 16.8911C20.3598 15.9613 20.4103 14.9742 20.2189 14.0199" stroke="#FF006C" stroke-width="2" stroke-linecap="round" stroke-linejoin="round"/>
</svg>
