<svg width="29" height="28" viewBox="0 0 29 28" fill="none" xmlns="http://www.w3.org/2000/svg">
<path d="M21.5 23.3333C21.5 21.4768 20.7625 19.6963 19.4498 18.3836C18.137 17.0708 16.3565 16.3333 14.5 16.3333M14.5 16.3333C12.6435 16.3333 10.863 17.0708 9.55026 18.3836C8.23751 19.6963 7.50001 21.4768 7.50001 23.3333M14.5 16.3333C17.0773 16.3333 19.1667 14.244 19.1667 11.6666C19.1667 9.08932 17.0773 6.99998 14.5 6.99998C11.9227 6.99998 9.83334 9.08932 9.83334 11.6666C9.83334 14.244 11.9227 16.3333 14.5 16.3333ZM26.1667 14C26.1667 20.4433 20.9433 25.6666 14.5 25.6666C8.05669 25.6666 2.83334 20.4433 2.83334 14C2.83334 7.55666 8.05669 2.33331 14.5 2.33331C20.9433 2.33331 26.1667 7.55666 26.1667 14Z" stroke="#9CA3AF" stroke-width="2" stroke-linecap="round" stroke-linejoin="round"/>
</svg>
