<svg width="28" height="28" viewBox="0 0 28 28" fill="none" xmlns="http://www.w3.org/2000/svg">
<path d="M20.9999 23.333C20.9999 21.4765 20.2624 19.696 18.9497 18.3833C17.6369 17.0705 15.8564 16.333 13.9999 16.333M13.9999 16.333C12.1434 16.333 10.3629 17.0705 9.05017 18.3833C7.73742 19.696 6.99992 21.4765 6.99992 23.333M13.9999 16.333C16.5772 16.333 18.6666 14.2437 18.6666 11.6663C18.6666 9.08901 16.5772 6.99967 13.9999 6.99967C11.4226 6.99967 9.33325 9.08901 9.33325 11.6663C9.33325 14.2437 11.4226 16.333 13.9999 16.333ZM25.6666 13.9997C25.6666 20.443 20.4432 25.6663 13.9999 25.6663C7.5566 25.6663 2.33325 20.443 2.33325 13.9997C2.33325 7.55635 7.5566 2.33301 13.9999 2.33301C20.4432 2.33301 25.6666 7.55635 25.6666 13.9997Z" stroke="#FF006C" stroke-width="2" stroke-linecap="round" stroke-linejoin="round"/>
</svg>
