<svg width="28" height="28" viewBox="0 0 28 28" fill="none" xmlns="http://www.w3.org/2000/svg">
<path d="M13.9999 15.1663V2.33301L23.3333 6.99967L13.9999 11.6663M23.9879 11.9252C24.6088 13.8387 24.6669 15.8903 24.1553 17.8358C23.6437 19.7814 22.584 21.539 21.1023 22.8997C19.6205 24.2603 17.7791 25.1666 15.7971 25.5108C13.815 25.855 11.7758 25.6226 9.9221 24.8413C8.06836 24.0599 6.4781 22.7624 5.34052 21.1033C4.20294 19.4441 3.56592 17.4931 3.50526 15.4823C3.44461 13.4715 3.96285 11.4856 4.99835 9.76091C6.03385 8.03619 7.54301 6.64524 9.34628 5.75354M9.33546 11.6629C8.75085 12.4411 8.37026 13.3532 8.22835 14.3161C8.08644 15.2791 8.18773 16.2622 8.523 17.1759C8.85826 18.0897 9.41684 18.905 10.1478 19.5477C10.8788 20.1903 11.759 20.6398 12.7082 20.8553C13.6574 21.0707 14.6454 21.0452 15.5822 20.7811C16.519 20.517 17.3748 20.0227 18.0717 19.3432C18.7686 18.6637 19.2844 17.8206 19.5721 16.8908C19.8597 15.9609 19.9102 14.9739 19.7188 14.0196" stroke="#A9B0BC" stroke-width="2" stroke-linecap="round" stroke-linejoin="round"/>
</svg>
