<svg width="16" height="16" viewBox="0 0 16 16" fill="none" xmlns="http://www.w3.org/2000/svg">
<path d="M14.0001 12.6668C14.3683 12.6668 14.6668 12.9653 14.6668 13.3335C14.6667 13.7016 14.3682 14.0002 14.0001 14.0002H8.00011C7.63197 14.0002 7.33353 13.7016 7.33344 13.3335C7.33344 12.9653 7.63192 12.6668 8.00011 12.6668H14.0001ZM12.6668 3.41553C12.6668 3.21706 12.5877 3.02659 12.4474 2.88623C12.307 2.74586 12.1166 2.66683 11.9181 2.66683C11.7196 2.66683 11.5291 2.74587 11.3888 2.88623L3.38162 10.8934C3.30245 10.9725 3.24443 11.0705 3.213 11.1779L2.82368 12.5086L4.15506 12.1206H4.15571C4.26338 12.0892 4.36156 12.0313 4.44087 11.952L12.4474 3.94482C12.5877 3.8045 12.6667 3.61396 12.6668 3.41553ZM14.0001 3.41553C14.0001 3.96759 13.7805 4.49716 13.3901 4.88753L5.38357 12.8947C5.17536 13.1029 4.92392 13.2619 4.6479 13.3615L4.52876 13.4006L2.61404 13.9591C2.442 14.0093 2.25965 14.0127 2.08605 13.9683C1.91244 13.9238 1.75381 13.8333 1.62706 13.7065C1.50031 13.5798 1.40984 13.4212 1.36534 13.2476C1.32088 13.074 1.3237 12.8916 1.37381 12.7196L1.93305 10.8049V10.8042C2.02728 10.4817 2.20127 10.1882 2.43891 9.95068L10.4461 1.94352C10.8365 1.55311 11.366 1.3335 11.9181 1.3335C12.4702 1.3335 12.9997 1.5531 13.3901 1.94352C13.7804 2.33393 14.0001 2.86344 14.0001 3.41553Z" fill="white"/>
</svg>
