<svg width="16" height="16" viewBox="0 0 16 16" fill="none" xmlns="http://www.w3.org/2000/svg">
<path d="M1.33325 13.9999V10.6666C1.33325 10.2984 1.63173 9.99992 1.99992 9.99992H5.33325C5.70144 9.99992 5.99992 10.2984 5.99992 10.6666C5.99992 11.0348 5.70144 11.3333 5.33325 11.3333H3.60929L3.96997 11.6939L4.177 11.8847C5.23274 12.8111 6.59039 13.327 8.00122 13.3326C9.41524 13.3323 10.7715 12.7713 11.7714 11.7714C12.7716 10.7712 13.3333 9.41441 13.3333 7.99992C13.3333 7.63173 13.6317 7.33325 13.9999 7.33325C14.3681 7.33325 14.6666 7.63173 14.6666 7.99992C14.6666 9.76803 13.9644 11.4639 12.7141 12.7141C11.4639 13.9644 9.76803 14.6666 7.99992 14.6666H7.99731C6.26341 14.66 4.59487 14.0252 3.29744 12.8866L3.03507 12.6445L2.66659 12.276V13.9999C2.66659 14.3681 2.36811 14.6666 1.99992 14.6666C1.63173 14.6666 1.33325 14.3681 1.33325 13.9999ZM1.33325 7.99992C1.33325 6.23181 2.03548 4.53597 3.28573 3.28573C4.53597 2.03548 6.23181 1.33325 7.99992 1.33325H8.00252L8.34823 1.34302C9.95718 1.42676 11.4914 2.05049 12.7024 3.1132L12.9648 3.35539L13.3333 3.72388V1.99992C13.3333 1.63173 13.6317 1.33325 13.9999 1.33325C14.3681 1.33325 14.6666 1.63173 14.6666 1.99992V5.33325C14.6666 5.70144 14.3681 5.99992 13.9999 5.99992H10.6666C10.2984 5.99992 9.99992 5.70144 9.99992 5.33325C9.99992 4.96506 10.2984 4.66659 10.6666 4.66659H12.3905L12.0299 4.30591L11.8228 4.11515C10.7669 3.18859 9.40903 2.67203 7.99797 2.66659C6.58418 2.6671 5.22817 3.2287 4.22843 4.22843C3.22824 5.22863 2.66659 6.58543 2.66659 7.99992C2.66659 8.36811 2.36811 8.66659 1.99992 8.66659C1.63173 8.66659 1.33325 8.36811 1.33325 7.99992Z" fill="#030712"/>
</svg>
